<svg width="28" height="60" viewBox="0 0 28 60" fill="none" xmlns="http://www.w3.org/2000/svg">
<g id="Group 8067">
<g id="Rectangle 3465714">
<mask id="path-1-inside-1_1796_34377" fill="white">
<path d="M3 6.11108C3 3.34966 5.23858 1.11108 8 1.11108H23C25.7614 1.11108 28 3.34966 28 6.11108V53.8889C28 56.6503 25.7614 58.8889 23 58.8889H8C5.23858 58.8889 3 56.6503 3 53.8889V6.11108Z"/>
</mask>
<path d="M3 6.11108C3 1.69281 6.58172 -1.88892 11 -1.88892H23C27.4183 -1.88892 31 1.69281 31 6.11108H25C25 5.00651 24.1046 4.11108 23 4.11108H8C5.23858 4.11108 3 5.00651 3 6.11108ZM31 53.8889C31 58.3071 27.4183 61.8889 23 61.8889H11C6.58172 61.8889 3 58.3071 3 53.8889C3 54.9934 5.23858 55.8889 8 55.8889H23C24.1046 55.8889 25 54.9934 25 53.8889H31ZM3 58.8889V1.11108V58.8889ZM23 -1.88892C27.4183 -1.88892 31 1.69281 31 6.11108V53.8889C31 58.3071 27.4183 61.8889 23 61.8889V55.8889C24.1046 55.8889 25 54.9934 25 53.8889V6.11108C25 5.00651 24.1046 4.11108 23 4.11108V-1.88892Z" fill="#666666" mask="url(#path-1-inside-1_1796_34377)"/>
</g>
<rect id="Rectangle 3465715" width="11" height="60" fill="white"/>
</g>
</svg>
